<svg width="32" height="33" viewBox="0 0 32 33" fill="none" xmlns="http://www.w3.org/2000/svg">
<path d="M29.334 17.833V12.5C29.334 5.833 26.667 3.167 20 3.167H12C5.33401 3.167 2.66701 5.833 2.66701 12.5V20.5C2.66701 27.167 5.33401 29.833 12 29.833H17.334" stroke="#00FF99" stroke-width="2" stroke-linecap="round" stroke-linejoin="round"/>
<path d="M29.334 17.833V12.5C29.334 5.833 26.667 3.167 20 3.167H12C5.33401 3.167 2.66701 5.833 2.66701 12.5V20.5C2.66701 27.167 5.33401 29.833 12 29.833H17.334" stroke="#00FF99" stroke-width="2" stroke-linecap="round" stroke-linejoin="round"/>
<path d="M29.334 17.833V12.5C29.334 5.833 26.667 3.167 20 3.167H12C5.33401 3.167 2.66701 5.833 2.66701 12.5V20.5C2.66701 27.167 5.33401 29.833 12 29.833H17.334M21.333 26.407L23.44 28.5L28 23.167M9.33301 14.5V18.5M16 14.5V18.5M22.667 14.5V18.5" stroke="#00FF99" stroke-width="3" stroke-linecap="round" stroke-linejoin="round"/>
</svg>
