<svg width="32" height="33" viewBox="0 0 32 33" fill="none" xmlns="http://www.w3.org/2000/svg">
<path d="M16 8.5V24.5M13.334 27.167C13.3271 27.5215 13.391 27.8738 13.522 28.2034C13.6529 28.5329 13.8482 28.833 14.0965 29.0861C14.3448 29.3393 14.641 29.5404 14.968 29.6777C15.2949 29.8149 15.6459 29.8856 16.0005 29.8856C16.3551 29.8856 16.7061 29.8149 17.033 29.6777C17.36 29.5404 17.6562 29.3393 17.9045 29.0861C18.1528 28.833 18.3481 28.5329 18.4791 28.2034C18.61 27.8738 18.6739 27.5215 18.667 27.167C18.6535 26.4687 18.3666 25.8036 17.868 25.3146C17.3694 24.8256 16.6989 24.5516 16.0005 24.5516C15.3021 24.5516 14.6316 24.8256 14.133 25.3146C13.6344 25.8036 13.3475 26.4687 13.334 27.167ZM24 27.167C23.9931 27.5215 24.057 27.8738 24.188 28.2034C24.3189 28.5329 24.5142 28.833 24.7625 29.0861C25.0108 29.3393 25.307 29.5404 25.634 29.6777C25.9609 29.8149 26.3119 29.8856 26.6665 29.8856C27.0211 29.8856 27.3721 29.8149 27.699 29.6777C28.026 29.5404 28.3222 29.3393 28.5705 29.0861C28.8188 28.833 29.0141 28.5329 29.1451 28.2034C29.276 27.8738 29.3399 27.5215 29.333 27.167C29.3195 26.4687 29.0326 25.8036 28.534 25.3146C28.0354 24.8256 27.3649 24.5516 26.6665 24.5516C25.9681 24.5516 25.2976 24.8256 24.799 25.3146C24.3004 25.8036 24.0135 26.4687 24 27.167ZM2.667 27.167C2.66014 27.5215 2.72403 27.8738 2.85496 28.2034C2.98588 28.5329 3.18119 28.833 3.42948 29.0861C3.67777 29.3393 3.97404 29.5404 4.30097 29.6777C4.6279 29.8149 4.97892 29.8856 5.3335 29.8856C5.68809 29.8856 6.03911 29.8149 6.36604 29.6777C6.69297 29.5404 6.98924 29.3393 7.23753 29.0861C7.48582 28.833 7.68113 28.5329 7.81205 28.2034C7.94297 27.8738 8.00687 27.5215 8 27.167C7.98648 26.4687 7.6996 25.8036 7.20101 25.3146C6.70242 24.8256 6.03189 24.5516 5.3335 24.5516C4.63511 24.5516 3.96459 24.8256 3.466 25.3146C2.9674 25.8036 2.68053 26.4687 2.667 27.167ZM13.334 5.833C13.3271 6.18751 13.391 6.53984 13.522 6.86937C13.6529 7.19889 13.8482 7.499 14.0965 7.75215C14.3448 8.00529 14.641 8.20638 14.968 8.34366C15.2949 8.48093 15.6459 8.55164 16.0005 8.55164C16.3551 8.55164 16.7061 8.48093 17.033 8.34366C17.36 8.20638 17.6562 8.00529 17.9045 7.75215C18.1528 7.499 18.3481 7.19889 18.4791 6.86937C18.61 6.53984 18.6739 6.18751 18.667 5.833C18.6535 5.13474 18.3666 4.46965 17.868 3.98062C17.3694 3.49158 16.6989 3.21764 16.0005 3.21764C15.3021 3.21764 14.6316 3.49158 14.133 3.98062C13.6344 4.46965 13.3475 5.13474 13.334 5.833Z" stroke="#D735D7" stroke-width="3" stroke-linecap="round" stroke-linejoin="round"/>
<path d="M26.667 24.5V19.167C26.667 16.5003 25.3337 15.167 22.667 15.167H9.33401C6.66735 15.167 5.33401 16.5003 5.33401 19.167V24.5" stroke="#D735D7" stroke-width="3" stroke-linecap="round" stroke-linejoin="round"/>
</svg>
