<svg width="32" height="33" viewBox="0 0 32 33" fill="none" xmlns="http://www.w3.org/2000/svg">
<path d="M25.52 26.5C27.9669 24.0101 29.3368 20.658 29.334 17.167C29.334 9.80699 23.36 3.83299 16 3.83299C8.64001 3.83299 2.66701 9.80699 2.66701 17.167C2.66701 20.793 4.10701 24.073 6.45401 26.487" stroke="#FF7A28" stroke-width="3" stroke-miterlimit="10" stroke-linecap="round" stroke-linejoin="round"/>
<path d="M16 29.167C17.1953 29.167 18.3417 28.6921 19.1869 27.8469C20.0322 27.0017 20.507 25.8553 20.507 24.66C20.507 23.4647 20.0322 22.3183 19.1869 21.4731C18.3417 20.6278 17.1953 20.153 16 20.153C14.8047 20.153 13.6583 20.6278 12.8131 21.4731C11.9679 22.3183 11.493 23.4647 11.493 24.66C11.493 25.8553 11.9679 27.0017 12.8131 27.8469C13.6583 28.6921 14.8047 29.167 16 29.167ZM20.333 16.5H21.333C22.426 16.5 23.333 15.607 23.333 14.5C23.333 13.407 22.426 12.5 21.333 12.5C20.24 12.5 19.333 13.393 19.333 14.5V15.5C19.333 16.047 19.786 16.5 20.333 16.5Z" stroke="#FF7A28" stroke-width="3" stroke-miterlimit="10" stroke-linecap="round" stroke-linejoin="round"/>
</svg>
