<svg width="32" height="32" viewBox="0 0 32 32" fill="none" xmlns="http://www.w3.org/2000/svg">
<path d="M9.187 23.32L12.253 26.387M26.387 19.907C25.0849 21.2058 23.4528 22.1245 21.6669 22.5638C19.881 23.0031 18.0091 22.9465 16.253 22.4L9.973 28.667C9.52 29.133 8.627 29.413 7.987 29.32L5.08 28.92C4.12 28.787 3.227 27.88 3.08 26.92L2.68 24.013C2.587 23.373 2.893 22.48 3.333 22.027L9.6 15.76C8.533 12.293 9.36 8.36 12.107 5.627C16.04 1.693 22.427 1.693 26.373 5.627C30.32 9.56 30.32 15.973 26.387 19.907Z" stroke="#5C96FF" stroke-width="3" stroke-miterlimit="10" stroke-linecap="round" stroke-linejoin="round"/>
<path d="M19.333 14.667C19.8634 14.667 20.3721 14.4563 20.7472 14.0812C21.1223 13.7061 21.333 13.1974 21.333 12.667C21.333 12.1366 21.1223 11.6279 20.7472 11.2528C20.3721 10.8777 19.8634 10.667 19.333 10.667C18.8026 10.667 18.2939 10.8777 17.9188 11.2528C17.5437 11.6279 17.333 12.1366 17.333 12.667C17.333 13.1974 17.5437 13.7061 17.9188 14.0812C18.2939 14.4563 18.8026 14.667 19.333 14.667Z" stroke="#5C96FF" stroke-width="3" stroke-linecap="round" stroke-linejoin="round"/>
</svg>
