<svg width="32" height="32" viewBox="0 0 32 32" fill="none" xmlns="http://www.w3.org/2000/svg">
<path d="M15.654 23.667H23.547C23.427 23.773 23.307 23.867 23.187 23.973L17.494 28.24C15.614 29.64 12.547 29.64 10.654 28.24L4.94701 23.973C3.69401 23.04 2.66701 20.973 2.66701 19.413V9.533C2.66701 7.907 3.90701 6.107 5.42701 5.533L12.067 3.04C13.16 2.627 14.974 2.627 16.067 3.04L22.694 5.533C23.96 6.013 25.04 7.347 25.374 8.707H15.64C15.347 8.707 15.08 8.72 14.827 8.72C12.36 8.867 11.72 9.76 11.72 12.573V19.813C11.734 22.88 12.52 23.667 15.654 23.667Z" stroke="#9966FF" stroke-width="3" stroke-linecap="round" stroke-linejoin="round"/>
<path d="M11.733 14.96H29.333" stroke="#9966FF" stroke-width="3" stroke-miterlimit="10" stroke-linecap="round" stroke-linejoin="round"/>
<path d="M29.333 12.56V19.96C29.307 22.92 28.493 23.653 25.413 23.653H15.653C12.52 23.653 11.733 22.867 11.733 19.787V12.547C11.733 9.747 12.373 8.853 14.84 8.693C15.093 8.693 15.36 8.68 15.653 8.68H25.413C28.547 8.693 29.333 9.467 29.333 12.56Z" stroke="#9966FF" stroke-width="3" stroke-linecap="round" stroke-linejoin="round"/>
<path d="M15.094 20.347H16.867M19.667 20.347H24.027" stroke="#9966FF" stroke-width="3" stroke-miterlimit="10" stroke-linecap="round" stroke-linejoin="round"/>
</svg>
