<svg width="28" height="28" viewBox="0 0 28 28" fill="none" xmlns="http://www.w3.org/2000/svg">
<path d="M10.5 15.167C9.73532 15.5487 9.08376 16.1237 8.61 16.835C8.47886 17.032 8.40889 17.2634 8.40889 17.5C8.40889 17.7366 8.47886 17.968 8.61 18.165C9.08376 18.8763 9.73532 19.4513 10.5 19.833M17.745 15.167C18.5097 15.5487 19.1612 16.1237 19.635 16.835C19.7661 17.032 19.8361 17.2634 19.8361 17.5C19.8361 17.7366 19.7661 17.968 19.635 18.165C19.1612 18.8763 18.5097 19.4513 17.745 19.833" stroke="white" stroke-width="1.5" stroke-linecap="round" stroke-linejoin="round"/>
<path d="M2.602 9.345L25.025 9.334M10.5 25.667H17.5C23.333 25.667 25.666 23.333 25.666 17.5V10.5C25.666 4.667 23.333 2.334 17.5 2.334H10.5C4.666 2.334 2.333 4.667 2.333 10.5V17.5C2.333 23.334 4.666 25.667 10.5 25.667Z" stroke="white" stroke-width="1.5" stroke-linecap="round" stroke-linejoin="round"/>
</svg>
